HIERARCHY
ROOT hip
{
	OFFSET 0.000000 0.000000 0.000000 
	CHANNELS 6 Xposition Yposition Zposition Xrotation Yrotation Zrotation
	JOINT abdomen
	{
		OFFSET 0.000000 3.402643 0.000000 
		CHANNELS 3 Xrotation Yrotation Zrotation
		JOINT chest
		{
			OFFSET 0.000000 8.438565 -0.680529 
			CHANNELS 3 Xrotation Yrotation Zrotation
			JOINT neck
			{
				OFFSET 0.000000 9.885400 -0.272212 
				CHANNELS 3 Xrotation Yrotation Zrotation
				JOINT head
				{
					OFFSET 0.000000 3.130431 0.000000 
					CHANNELS 3 Xrotation Yrotation Zrotation
					End Site
					{
						OFFSET 0.000000 3.039250 0.000000 
					}
				}
			}
			JOINT rCollar
			{
				OFFSET -3.238290 6.669187 -0.816635 
				CHANNELS 3 Xrotation Yrotation Zrotation
				JOINT rShldr
				{
					OFFSET -2.515050 0.000000 0.000000 
					CHANNELS 3 Xrotation Yrotation Zrotation
					JOINT rForeArm
					{
						OFFSET -11.517700 0.000000 0.000000 
						CHANNELS 3 Xrotation Yrotation Zrotation
						JOINT rHand
						{
							OFFSET -9.026700 0.000000 0.000000 
							CHANNELS 3 Xrotation Yrotation Zrotation
							End Site
							{
								OFFSET -4.028470 0.000000 0.000000 
							}
						}
					}
				}
			}
			JOINT lCollar
			{
				OFFSET 3.238290 6.669187 -0.816635 
				CHANNELS 3 Xrotation Yrotation Zrotation
				JOINT lShldr
				{
					OFFSET 2.515050 0.000000 0.000000 
					CHANNELS 3 Xrotation Yrotation Zrotation
					JOINT lForeArm
					{
						OFFSET 11.517700 0.000000 0.000000 
						CHANNELS 3 Xrotation Yrotation Zrotation
						JOINT lHand
						{
							OFFSET 9.026700 0.000000 0.000000 
							CHANNELS 3 Xrotation Yrotation Zrotation
							End Site
							{
								OFFSET 4.028470 0.000000 0.000000 
							}
						}
					}
				}
			}
		}
	}
	JOINT rThigh
	{
		OFFSET -4.983750 -1.633274 1.361059 
		CHANNELS 3 Xrotation Yrotation Zrotation
		JOINT rShin
		{
			OFFSET 2.041588 -20.007561 0.000000 
			CHANNELS 3 Xrotation Yrotation Zrotation
			JOINT rFoot
			{
				OFFSET 0.000000 -19.190928 -1.224953 
				CHANNELS 3 Xrotation Yrotation Zrotation
				End Site
				{
					OFFSET 0.000000 -2.449906 4.627600 
				}
			}
		}
	}
	JOINT lThigh
	{
		OFFSET 4.983750 -1.633274 1.361059 
		CHANNELS 3 Xrotation Yrotation Zrotation
		JOINT lShin
		{
			OFFSET -2.041588 -20.007561 0.000000 
			CHANNELS 3 Xrotation Yrotation Zrotation
			JOINT lFoot
			{
				OFFSET 0.000000 -19.190928 -1.224953 
				CHANNELS 3 Xrotation Yrotation Zrotation
				End Site
				{
					OFFSET 0.000000 -2.449906 4.627600 
				}
			}
		}
	}
}
MOTION
Frames: 17
Frame Time: 0.033333
-14.496614 44.520134 -4.510771 0.353930 -6.992401 8.399565 5.128067 1.268687 2.010744 16.927670 4.883404 6.215170 0.000000 0.000000 0.000000 0.000000 0.000000 0.000000 -0.000002 -0.000002 0.000002 13.466880 56.230881 44.212502 0.249934 8.268764 -0.023797 0.000000 0.000000 0.000000 -0.000002 -0.000002 0.000002 -28.122271 -54.911400 -6.506689 0.801578 -24.917629 0.194556 0.000000 0.000000 0.000000 -9.148097 2.457018 -4.565510 16.320101 0.142345 -0.037162 -2.693827 0.414852 0.161527 -2.896521 2.889206 2.070010 2.843972 -0.025369 0.003639 -0.127052 3.040149 1.016590 
-14.480236 44.504017 -4.544743 0.466383 -6.975122 8.159525 5.113927 1.205297 2.105444 16.876970 4.704574 6.550996 0.000002 0.000000 0.000000 -0.000002 0.000001 0.000002 0.000000 -0.000001 0.000004 13.470880 56.242249 44.169510 0.256304 8.476340 -0.024862 0.000000 0.000000 0.000000 0.000000 -0.000001 0.000004 -24.279720 -57.589298 -3.236346 0.817909 -25.360041 0.201799 0.000000 0.000009 -0.000001 -9.445608 2.435148 -4.293213 16.547029 0.144235 -0.037961 -2.709355 -0.133872 -0.026645 -3.234679 3.118681 2.307431 3.137804 -0.027986 0.004076 -0.411787 2.942720 0.971887 
-14.462729 44.489628 -4.561472 0.583145 -6.872592 7.947884 5.072184 1.167804 2.198624 16.732321 4.606795 6.876251 0.000001 0.000000 0.000001 0.000001 0.000000 0.000001 0.000000 -0.000002 0.000004 13.645880 56.013371 44.153542 0.257843 8.526410 -0.025131 -0.000001 -0.000001 0.000001 0.000000 -0.000002 0.000004 -20.587900 -59.303551 0.216830 0.871180 -26.780069 0.226185 0.000000 0.000000 0.000000 -9.388386 2.441198 -4.087492 16.127230 0.140730 -0.036493 -2.884472 -0.574226 -0.180206 -3.423913 3.333154 2.553979 3.134151 -0.027947 0.004075 -0.771480 2.476303 0.808183 
-14.438594 44.473465 -4.572824 0.756646 -6.968227 7.804846 4.997569 1.157914 2.291754 16.475309 4.595006 7.195685 0.000000 0.000000 0.000000 0.000000 0.000000 0.000000 0.000000 -0.000001 0.000004 13.737660 55.904961 44.315762 0.242310 8.020308 -0.022546 0.000002 0.000002 -0.000001 -0.000002 -0.000002 0.000000 -14.982400 -59.521061 5.243832 0.969311 -29.303080 0.274062 0.000001 0.000000 0.000000 -9.343505 2.474742 -3.971332 15.620480 0.136491 -0.034745 -3.043789 -0.500631 -0.170816 -3.414252 3.526454 2.751469 2.736249 -0.024393 0.003485 -0.855424 2.021449 0.658164 
-14.412335 44.449200 -4.611866 1.032640 -7.124409 7.701870 4.894090 1.173865 2.387144 16.118759 4.664087 7.517438 0.000000 0.000000 0.000001 0.000000 0.000000 0.000001 0.000000 -0.000002 0.000004 13.956050 55.696209 44.367271 0.235981 7.813608 -0.021534 -0.000002 0.000002 -0.000001 -0.000002 -0.000002 0.000003 -10.101500 -59.055859 9.310097 1.032444 -30.862440 0.306777 0.000000 0.000001 0.000002 -9.753094 2.528436 -3.885385 15.702910 0.137179 -0.035025 -3.109138 -0.117126 -0.045698 -3.632698 3.700004 2.924487 2.529263 -0.022542 0.003189 -0.692941 1.712014 0.565476 
-14.403669 44.418655 -4.669147 1.388952 -7.161861 7.544482 4.776012 1.209918 2.484191 15.710720 4.796758 7.840921 0.000001 0.000000 0.000001 0.000001 0.000000 0.000001 0.000001 -0.000002 0.000005 14.422100 55.270401 44.192478 0.245769 8.132992 -0.023104 0.000000 0.000000 0.000000 -0.000001 -0.000002 0.000003 -6.680201 -58.756680 12.104420 1.045930 -31.188959 0.313954 0.000002 -0.000005 0.000002 -10.458750 2.600546 -3.693128 16.142120 0.140852 -0.036542 -3.050056 0.249362 0.095816 -4.187282 3.846452 3.194501 2.733437 -0.024367 0.003477 -0.329930 1.420129 0.475674 
-14.414502 44.386330 -4.716684 1.741693 -7.080622 7.295589 4.664356 1.256226 2.577059 15.323260 4.963322 8.150913 0.000000 0.000000 0.000000 0.000000 0.000000 0.000000 0.000000 -0.000002 0.000004 14.930780 54.925308 44.003910 0.251520 8.320510 -0.024065 -0.000001 -0.000001 0.000000 -0.000002 -0.000002 0.000002 -1.583213 -58.396660 16.788500 1.050792 -31.306150 0.316558 0.000000 0.000001 0.000000 -11.006790 2.682799 -3.388455 16.292410 0.142100 -0.037070 -2.821827 0.573213 0.239126 -4.772662 3.963777 3.586619 3.009444 -0.026832 0.003884 -0.013728 0.908174 0.278858 
-14.420265 44.359459 -4.744284 1.978564 -7.026547 7.094391 4.578815 1.301900 2.658275 15.024850 5.127267 8.422144 -0.000002 0.000000 -0.000002 0.000000 0.000000 0.000000 -0.000002 -0.000002 0.000002 15.406630 54.853359 43.810631 0.248358 8.217433 -0.023540 -0.000006 -0.000003 -0.000004 -0.000002 -0.000002 0.000002 4.633643 -57.754028 22.494221 1.041054 -31.071119 0.311354 0.000001 0.000000 -0.000001 -11.171220 2.727052 -3.180389 16.006929 0.139712 -0.036082 -2.686917 0.741647 0.313170 -5.141809 4.092482 3.890939 3.163382 -0.028205 0.004111 -0.200508 0.345713 0.059619 
-14.404016 44.342869 -4.763525 2.044984 -6.956916 7.051859 4.529096 1.338706 2.724028 14.848940 5.254694 8.631002 0.000002 0.000000 0.000002 0.000000 0.000000 0.000000 0.000000 -0.000002 0.000004 15.982060 54.944260 43.445969 0.242883 8.039316 -0.022634 0.000002 -0.000003 -0.000004 0.000000 -0.000002 0.000004 9.668405 -57.404140 26.875429 1.000025 -30.067900 0.289796 0.000003 -0.000006 -0.000003 -11.059530 2.695863 -3.189050 15.625330 0.136515 -0.034777 -2.995229 0.520414 0.206204 -5.444973 4.255958 3.936618 3.498467 -0.031184 0.004631 -0.761609 0.175152 0.030696 
-14.394569 44.327225 -4.785362 2.013573 -6.796400 6.992902 4.510952 1.360672 2.770264 14.780290 5.321043 8.765578 -0.000001 0.000000 0.000000 0.000000 0.000000 0.000000 -0.000003 -0.000001 0.000003 16.685020 55.103882 42.909752 0.242543 8.028110 -0.022580 0.000000 0.000000 0.000000 -0.000003 -0.000001 0.000003 13.924340 -57.109951 30.709261 0.955800 -28.962860 0.267253 0.000000 0.000000 -0.000001 -10.920340 2.627525 -3.157797 15.404830 0.134664 -0.034029 -3.497028 0.141640 0.019155 -5.841683 4.410426 3.969231 4.121305 -0.036724 0.005641 -1.224975 0.360691 0.141242 
-14.409779 44.308506 -4.791687 1.943515 -6.750687 6.836199 4.508955 1.364106 2.791706 14.769240 5.311509 8.827027 0.000000 0.000000 0.000000 0.000000 0.000000 0.000000 -0.000002 -0.000002 0.000002 17.465031 55.363911 42.252689 0.254784 8.426785 -0.024612 -0.000001 -0.000001 0.000000 -0.000002 -0.000002 0.000002 17.690769 -56.171398 34.176991 0.914636 -27.912220 0.246925 -0.000001 0.000001 0.000003 -10.832940 2.571489 -2.973405 15.369040 0.134359 -0.033915 -3.805757 -0.056388 -0.071867 -5.959206 4.542667 4.132092 4.371280 -0.038944 0.006063 -1.381290 0.599155 0.192456 
-14.421392 44.291519 -4.779469 1.865874 -6.884399 6.767905 4.509496 1.312995 2.780612 14.762660 5.217938 8.823015 -0.000002 0.000000 0.000000 0.000003 0.000000 0.000003 -0.000002 -0.000002 0.000004 18.306101 55.813950 41.443790 0.272573 9.004838 -0.027705 0.000004 -0.000001 -0.000005 -0.000004 -0.000001 0.000002 20.502010 -54.738461 36.425060 0.845518 -26.100361 0.214293 -0.000001 -0.000001 -0.000002 -10.774320 2.530938 -2.901202 15.432190 0.134884 -0.034130 -3.917361 0.003362 -0.028093 -5.619505 4.677355 4.193460 3.903821 -0.034787 0.005285 -1.217981 0.831163 0.206857 
-14.426157 44.270111 -4.780596 1.863986 -6.968699 6.799438 4.495105 1.267598 2.756861 14.728540 5.037335 8.759549 0.000000 0.000000 0.000000 0.000000 0.000000 0.000000 0.000000 -0.000002 0.000004 19.146111 56.560619 40.580132 0.280401 9.258657 -0.029114 0.000001 0.000002 -0.000001 0.000000 -0.000002 0.000004 22.435631 -53.152962 37.768471 0.750809 -23.521971 0.172767 0.000005 0.000001 0.000001 -10.803750 2.483441 -2.959148 15.461400 0.135117 -0.034235 -3.973090 0.218142 0.074684 -5.312793 4.797716 4.157422 3.317732 -0.029565 0.004358 -0.947543 1.002387 0.270802 
-14.440500 44.243336 -4.800228 1.938640 -6.883056 6.824645 4.468979 1.195322 2.713190 14.661240 4.773484 8.637784 -0.000003 0.000000 -0.000003 -0.000001 0.000000 -0.000001 -0.000003 -0.000001 0.000001 19.910210 57.621490 39.869289 0.270188 8.927399 -0.027279 0.000000 0.000000 0.000000 -0.000003 -0.000001 0.000001 23.979059 -51.598282 38.958199 0.629357 -20.058250 0.125288 0.000000 -0.000005 -0.000001 -10.872860 2.412532 -2.988203 15.397150 0.134580 -0.034019 -4.130302 0.261568 0.095590 -5.315993 4.894350 4.169895 3.062886 -0.027288 0.003972 -0.761075 0.961335 0.300625 
-14.456749 44.220284 -4.818554 2.019300 -6.692734 6.880580 4.435110 1.102273 2.650175 14.571130 4.438742 8.457957 0.000000 0.000000 0.000001 -0.000002 0.000000 -0.000002 -0.000002 -0.000001 0.000003 20.607300 58.949799 39.293011 0.243852 8.070769 -0.022791 0.000005 -0.000004 -0.000003 -0.000002 -0.000001 0.000003 25.296650 -50.076820 39.995750 0.466033 -15.143720 0.072479 -0.000002 0.000001 0.000002 -10.899530 2.324732 -3.053306 15.252440 0.133366 -0.033532 -4.410318 0.152519 0.048982 -5.444838 4.988698 4.153347 2.998550 -0.026716 0.003877 -0.594433 0.756742 0.246118 
-14.471136 44.199661 -4.831638 2.092908 -6.454234 6.984397 4.397820 0.995290 2.570684 14.471130 4.053795 8.227472 0.000000 0.000000 0.000000 0.000000 0.000000 0.000000 0.000000 -0.000001 0.000004 21.374861 60.379829 38.627312 0.216376 7.172196 -0.018530 0.000000 0.000000 0.000000 -0.000002 -0.000001 0.000002 26.422091 -48.056358 40.664558 0.298762 -9.853229 0.032609 0.000000 0.000000 0.000000 -10.943130 2.224818 -3.193533 15.175140 0.132717 -0.033272 -4.703264 0.167454 0.054542 -5.571711 5.080510 4.068641 2.941073 -0.026202 0.003798 -0.417862 0.527556 0.165870 
-14.494664 44.172535 -4.850576 2.197526 -6.209274 7.069721 4.359693 0.882002 2.481383 14.368380 3.646573 7.966307 0.000000 0.000000 0.000000 0.000000 0.000000 0.000000 0.000000 -0.000001 0.000004 22.308470 61.774490 37.751789 0.197986 6.569315 -0.015922 -0.000001 -0.000002 0.000001 -0.000002 -0.000002 0.000002 27.749889 -44.883709 41.097370 0.178204 -5.919387 0.013357 -0.000001 -0.000001 0.000000 -11.105620 2.102975 -3.292606 15.251430 0.133355 -0.033532 -4.941756 0.236819 0.098130 -5.775970 5.152555 4.025905 2.956401 -0.026339 0.003819 -0.346195 0.261988 0.072234 
